<?xml version="1.0" encoding="utf-8"?>
<!-- Generator: Adobe Illustrator 22.0.0, SVG Export Plug-In . SVG Version: 6.00 Build 0)  -->
<svg version="1.1" id="Layer_1" xmlns="http://www.w3.org/2000/svg" xmlns:xlink="http://www.w3.org/1999/xlink" x="0px" y="0px"
	 viewBox="0 0 10.7 10.3" style="enable-background:new 0 0 10.7 10.3;" xml:space="preserve">
<g>
	<path class="st0" d="M5.4,9.7c-0.6,0-1.3,0-1.9,0C2,9.7,0.9,8.6,0.9,7.1c0-1.3,0-2.6,0-3.8c0-1.4,1.1-2.5,2.5-2.5
		c1.3,0,2.6,0,3.9,0c1.4,0,2.5,1.1,2.5,2.5c0,1.3,0,2.6,0,3.9c0,1.4-1.1,2.5-2.5,2.5C6.7,9.7,6,9.7,5.4,9.7z M5.4,9.2
		C5.4,9.2,5.4,9.2,5.4,9.2c0.7,0,1.4,0,2.1,0c1,0,1.9-0.9,1.9-1.9c0-1.3,0-2.7,0-4c0-1.1-0.9-2-2-2c-1.3,0-2.6,0-3.9,0
		c-1.1,0-2,0.9-2,2c0,1.3,0,2.6,0,3.9c0,1.2,0.8,2,2,2C4.1,9.2,4.7,9.2,5.4,9.2z"/>
	<path class="st0" d="M3,5.2c0-1.3,1-2.3,2.3-2.3c1.3,0,2.4,1,2.4,2.3c0,1.3-1,2.3-2.3,2.3C4.1,7.6,3,6.5,3,5.2z M5.4,7.1
		c1,0,1.9-0.8,1.8-1.8c0-1-0.8-1.9-1.9-1.9c-1,0-1.9,0.8-1.9,1.8C3.5,6.3,4.3,7.1,5.4,7.1z"/>
	<path class="st0" d="M8.3,2.5C8.3,2.8,8.1,3,7.8,3C7.6,3,7.3,2.8,7.3,2.5C7.4,2.2,7.6,2,7.9,2C8.1,2,8.3,2.2,8.3,2.5z"/>
</g>
</svg>
