<?xml version="1.0" encoding="utf-8"?>
<!-- Generator: Adobe Illustrator 22.0.0, SVG Export Plug-In . SVG Version: 6.00 Build 0)  -->
<svg version="1.1" id="Layer_1" xmlns="http://www.w3.org/2000/svg" xmlns:xlink="http://www.w3.org/1999/xlink" x="0px" y="0px"
	 viewBox="0 0 204.6 34.6" style="enable-background:new 0 0 204.6 34.6;" xml:space="preserve">
<style type="text/css">
	.st0{fill:#B3B3B3;}
</style>
<g>
	<path class="st0" d="M4.9,6.7h13.8v2.7h-5.5v17.4h-2.9V9.4H4.9V6.7z"/>
	<path class="st0" d="M25.5,13c4,0,7,3,7,7.1s-3,7.1-7,7.1s-7-3-7-7.1S21.5,13,25.5,13z M25.5,24.6c2.5,0,4.3-2,4.3-4.5
		s-1.8-4.5-4.3-4.5s-4.3,2-4.3,4.5S23,24.6,25.5,24.6z"/>
	<path class="st0" d="M38.9,13.3v1.3c0.5-0.6,2.1-1.6,4-1.6c2,0,3.7,0.9,4.8,2.2c1.2-1.2,2.7-2.2,5.2-2.2c1.9,0,3.7,0.9,4.8,2.3
		c0.8,1,1.2,2.4,1.2,4.6v6.9h-2.7v-7.3c0-1.4-0.3-2.1-0.8-2.7c-0.6-0.7-1.5-1.2-2.5-1.2c-2,0-3.2,1-4.1,1.9c0.1,0.7,0.2,1.4,0.2,2.4
		v6.9h-2.7v-7.3c0-1.4-0.3-2.1-0.8-2.7c-0.6-0.7-1.6-1.2-2.6-1.2c-1.7,0-3,1-3.8,1.9v9.3h-2.7V13.3H38.9z"/>
	<path class="st0" d="M71.3,26.9V6.7h6.9c2,0,3.2,0.5,4.1,1.4c1,1,1.7,2.3,1.7,3.8c0,1.4-0.6,2.7-1.6,3.6c1.9,1,3.3,3,3.3,5.3
		c0,1.9-0.9,3.6-2.2,4.7c-1,0.9-2.4,1.4-4.4,1.4H71.3z M77.7,14.6c1.6,0,2.3-0.3,2.8-0.8c0.4-0.5,0.7-1.1,0.7-1.8
		c0-0.7-0.3-1.3-0.7-1.8c-0.5-0.5-1.2-0.8-2.8-0.8h-3.5v5.2H77.7z M78.6,24.1c1.8,0,2.7-0.4,3.3-1c0.6-0.6,1-1.4,1-2.4
		s-0.4-1.7-1-2.3c-0.6-0.6-1.5-1-3.3-1h-4.4v6.8H78.6z"/>
	<path class="st0" d="M89.2,6.4h2.7v20.4h-2.7V6.4z"/>
	<path class="st0" d="M106.7,25.6c-1.1,1-2.6,1.5-4.2,1.5c-1.2,0-2.5-0.3-3.4-0.9c-2-1.2-3.5-3.5-3.5-6.2s1.4-5,3.5-6.2
		c0.9-0.5,2-0.9,3.3-0.9c1.5,0,3,0.5,4.2,1.5v-1.2h2.6v13.5h-2.6V25.6z M106.6,17.6c-0.8-1.1-2.2-1.9-3.9-1.9
		c-2.6,0-4.3,2.1-4.3,4.5c0,2.4,1.9,4.5,4.5,4.5c1.4,0,2.8-0.7,3.7-1.9V17.6z"/>
	<path class="st0" d="M126.3,24c-1.1,1.9-3.5,3.2-6,3.2c-4.2,0-7.2-3.1-7.2-7.1s3-7.1,7.1-7.1c2.4,0,4.5,1.2,5.8,2.9l-2,1.7
		c-0.7-1-2-2-3.7-2c-2.4,0-4.3,1.9-4.3,4.5c0,2.6,1.9,4.5,4.5,4.5c1.8,0,3.1-1,3.9-2.1L126.3,24z"/>
	<path class="st0" d="M132.2,14.5c0.7-0.6,2.1-1.5,4-1.5c2,0,3.8,0.9,4.9,2.4c0.9,1.1,1.3,2.5,1.3,4.8v6.6h-2.7v-6.8
		c0-1.7-0.3-2.5-0.8-3.1c-0.6-0.8-1.7-1.3-2.8-1.3c-1.8,0-3.1,1-3.9,1.9v9.3h-2.7V6.4h2.7V14.5z"/>
	<path class="st0" d="M154.7,8.8c-0.2-0.1-0.6-0.1-1-0.1c-0.8,0-1.6,0.3-2.1,1c-0.4,0.5-0.5,1.2-0.5,2.4v1.2h4.2v2.4h-4.2v11.1h-2.7
		V15.8h-3.2v-2.4h3.2v-1.2c0-1.8,0.3-2.9,0.9-3.8c1-1.4,2.6-2.2,4.4-2.2c0.6,0,1.2,0.1,1.6,0.2L154.7,8.8z"/>
	<path class="st0" d="M163.9,13c4,0,7,3,7,7.1s-3,7.1-7,7.1c-4,0-7-3-7-7.1S159.9,13,163.9,13z M163.9,24.6c2.5,0,4.3-2,4.3-4.5
		s-1.8-4.5-4.3-4.5s-4.3,2-4.3,4.5S161.4,24.6,163.9,24.6z"/>
	<path class="st0" d="M182.1,15.7c-0.3-0.1-0.6-0.1-1.1-0.1c-1.4,0-2.9,1-3.7,2.3v9h-2.7V13.3h2.6v1.6c0.7-0.9,2.1-1.8,4.1-1.8
		c0.3,0,0.7,0,1.1,0.1L182.1,15.7z"/>
	<path class="st0" d="M195,25.6c-1.1,1-2.6,1.5-4.2,1.5c-1.2,0-2.5-0.3-3.4-0.9c-2-1.2-3.5-3.5-3.5-6.2s1.4-5,3.5-6.2
		c0.9-0.5,2-0.9,3.3-0.9c1.5,0,2.9,0.5,4.1,1.5V6.4h2.7v20.4H195V25.6z M194.9,17.6c-0.8-1.1-2.2-1.9-3.9-1.9
		c-2.6,0-4.3,2.1-4.3,4.5c0,2.4,1.9,4.5,4.5,4.5c1.4,0,2.8-0.7,3.7-1.9V17.6z"/>
</g>
</svg>
