<?xml version="1.0" encoding="utf-8"?>
<!-- Generator: Adobe Illustrator 22.0.0, SVG Export Plug-In . SVG Version: 6.00 Build 0)  -->
<svg version="1.1" id="Layer_1" xmlns="http://www.w3.org/2000/svg" xmlns:xlink="http://www.w3.org/1999/xlink" x="0px" y="0px"
	 viewBox="0 0 194 34.6" style="enable-background:new 0 0 194 34.6;" xml:space="preserve">
<style type="text/css">
	.st0{fill:#B3B3B3;}
</style>
<g>
	<path class="st0" d="M0.5,6.7h13.8v2.7H8.8v17.4H5.9V9.4H0.5V6.7z"/>
	<path class="st0" d="M21.1,13c4,0,7,3,7,7.1s-3,7.1-7,7.1s-7-3-7-7.1S17.1,13,21.1,13z M21.1,24.6c2.5,0,4.3-2,4.3-4.5
		s-1.8-4.5-4.3-4.5s-4.3,2-4.3,4.5S18.6,24.6,21.1,24.6z"/>
	<path class="st0" d="M34.5,13.3v1.3c0.5-0.6,2.1-1.6,4-1.6c2,0,3.7,0.9,4.8,2.2C44.5,14,46,13,48.5,13c1.9,0,3.7,0.9,4.8,2.3
		c0.8,1,1.2,2.4,1.2,4.6v6.9h-2.7v-7.3c0-1.4-0.3-2.1-0.8-2.7c-0.6-0.7-1.5-1.2-2.5-1.2c-2,0-3.2,1-4.1,1.9c0.1,0.7,0.2,1.4,0.2,2.4
		v6.9h-2.7v-7.3c0-1.4-0.3-2.1-0.8-2.7c-0.6-0.7-1.6-1.2-2.6-1.2c-1.7,0-3,1-3.8,1.9v9.3H32V13.3H34.5z"/>
	<path class="st0" d="M66.9,26.9V6.7h6.9c2,0,3.2,0.5,4.1,1.4c1,1,1.7,2.3,1.7,3.8c0,1.4-0.6,2.7-1.6,3.6c1.9,1,3.3,3,3.3,5.3
		c0,1.9-0.9,3.6-2.2,4.7c-1,0.9-2.4,1.4-4.4,1.4H66.9z M73.3,14.6c1.6,0,2.3-0.3,2.8-0.8c0.4-0.5,0.7-1.1,0.7-1.8s-0.3-1.3-0.7-1.8
		c-0.5-0.5-1.2-0.8-2.8-0.8h-3.5v5.2C69.8,14.6,73.3,14.6,73.3,14.6z M74.2,24.1c1.8,0,2.7-0.4,3.3-1c0.6-0.6,1-1.4,1-2.4
		s-0.4-1.7-1-2.3c-0.6-0.6-1.5-1-3.3-1h-4.4v6.8h4.4V24.1z"/>
	<path class="st0" d="M84.8,6.4h2.7v20.4h-2.7V6.4z"/>
	<path class="st0" d="M102.3,25.6c-1.1,1-2.6,1.5-4.2,1.5c-1.2,0-2.5-0.3-3.4-0.9c-2-1.2-3.5-3.5-3.5-6.2s1.4-5,3.5-6.2
		c0.9-0.5,2-0.9,3.3-0.9c1.5,0,3,0.5,4.2,1.5v-1.2h2.6v13.5h-2.6L102.3,25.6L102.3,25.6z M102.2,17.6c-0.8-1.1-2.2-1.9-3.9-1.9
		c-2.6,0-4.3,2.1-4.3,4.5s1.9,4.5,4.5,4.5c1.4,0,2.8-0.7,3.7-1.9C102.2,22.8,102.2,17.6,102.2,17.6z"/>
	<path class="st0" d="M121.9,24c-1.1,1.9-3.5,3.2-6,3.2c-4.2,0-7.2-3.1-7.2-7.1s3-7.1,7.1-7.1c2.4,0,4.5,1.2,5.8,2.9l-2,1.7
		c-0.7-1-2-2-3.7-2c-2.4,0-4.3,1.9-4.3,4.5s1.9,4.5,4.5,4.5c1.8,0,3.1-1,3.9-2.1L121.9,24z"/>
	<path class="st0" d="M127.8,14.5c0.7-0.6,2.1-1.5,4-1.5c2,0,3.8,0.9,4.9,2.4c0.9,1.1,1.3,2.5,1.3,4.8v6.6h-2.7V20
		c0-1.7-0.3-2.5-0.8-3.1c-0.6-0.8-1.7-1.3-2.8-1.3c-1.8,0-3.1,1-3.9,1.9v9.3h-2.7V6.4h2.7V14.5z"/>
	<path class="st0" d="M150.3,8.8c-0.2-0.1-0.6-0.1-1-0.1c-0.8,0-1.6,0.3-2.1,1c-0.4,0.5-0.5,1.2-0.5,2.4v1.2h4.2v2.4h-4.2v11.1H144
		v-11h-3.2v-2.4h3.2v-1.2c0-1.8,0.3-2.9,0.9-3.8c1-1.4,2.6-2.2,4.4-2.2c0.6,0,1.2,0.1,1.6,0.2L150.3,8.8z"/>
	<path class="st0" d="M159.5,13c4,0,7,3,7,7.1s-3,7.1-7,7.1s-7-3-7-7.1S155.5,13,159.5,13z M159.5,24.6c2.5,0,4.3-2,4.3-4.5
		s-1.8-4.5-4.3-4.5s-4.3,2-4.3,4.5S157,24.6,159.5,24.6z"/>
	<path class="st0" d="M177.7,15.7c-0.3-0.1-0.6-0.1-1.1-0.1c-1.4,0-2.9,1-3.7,2.3v9h-2.7V13.3h2.6v1.6c0.7-0.9,2.1-1.8,4.1-1.8
		c0.3,0,0.7,0,1.1,0.1L177.7,15.7z"/>
	<path class="st0" d="M190.6,25.6c-1.1,1-2.6,1.5-4.2,1.5c-1.2,0-2.5-0.3-3.4-0.9c-2-1.2-3.5-3.5-3.5-6.2s1.4-5,3.5-6.2
		c0.9-0.5,2-0.9,3.3-0.9c1.5,0,2.9,0.5,4.1,1.5v-8h2.7v20.4h-2.5V25.6z M190.5,17.6c-0.8-1.1-2.2-1.9-3.9-1.9
		c-2.6,0-4.3,2.1-4.3,4.5s1.9,4.5,4.5,4.5c1.4,0,2.8-0.7,3.7-1.9V17.6z"/>
</g>
</svg>
